<svg xmlns="http://www.w3.org/2000/svg">
  <symbol id="icon-strategy" viewBox="0 0 264 112">
    <rect x="0.5" y="0.5" width="263" height="111" rx="3.5" fill="#F4F4FD" stroke="#8E8F99"/>
    <path d="M161.546 68.1952L144.66 51.1851L146.534 41.9541C147.018 42.1429 147.532 42.2416 148.051 42.2453H148.064C150.448 42.2735 152.404 40.3633 152.432 37.9788C152.461 35.5943 150.55 33.6384 148.166 33.6101C145.781 33.582 143.825 35.4921 143.797 37.8767C143.791 38.3869 143.875 38.8941 144.047 39.3749L134.127 40.5856L117.945 24.32C117.747 24.1175 117.476 24.0023 117.192 24C116.912 24.0015 116.644 24.1129 116.445 24.3104L113.42 27.3184C113.004 27.7349 113.004 28.4101 113.42 28.8267L115.048 30.4779C108.742 42.0737 110.79 56.4335 120.087 65.8037C120.172 65.8853 120.271 65.9513 120.379 65.9989C120.312 66.3599 120.277 66.7261 120.275 67.0933V79.4667H107.475C104.531 79.4701 102.145 81.856 102.141 84.8V86.9333C102.141 87.5224 102.619 88 103.208 88H152.275C152.864 88 153.341 87.5224 153.341 86.9333V84.8C153.338 81.856 150.952 79.4701 148.008 79.4667H135.208V73.9829C137.213 74.4035 139.256 74.6179 141.305 74.6229C146.221 74.6176 151.059 73.392 155.385 71.056L157.021 72.7019C157.22 72.9044 157.491 73.0196 157.775 73.0219C158.055 73.0204 158.323 72.9089 158.521 72.7115L161.546 69.7035C161.963 69.2869 161.963 68.6117 161.546 68.1952ZM146.56 36.4661C147.395 35.6352 148.746 35.6389 149.577 36.4743C150.407 37.3096 150.404 38.6604 149.568 39.4912C149.169 39.8889 148.627 40.1121 148.063 40.112H148.057C146.879 40.1059 145.929 39.1459 145.935 37.9676C145.938 37.4036 146.164 36.8639 146.564 36.4661H146.56ZM144.049 43.4752L142.852 49.3664L140.501 47.0016L144.049 43.4752ZM142.837 41.6715L138.997 45.4891L136.026 42.5024L142.837 41.6715ZM148.008 81.6C149.775 81.6 151.208 83.0327 151.208 84.8V85.8667H104.275V84.8C104.275 83.0327 105.707 81.6 107.475 81.6H148.008ZM133.075 77.3333V79.4667H122.408V77.3333H133.075ZM122.408 75.2V67.0933C122.408 64.5056 124.801 62.4 127.741 62.4C130.682 62.4 133.075 64.5056 133.075 67.0933V75.2H122.408ZM135.208 71.808V67.0933C135.208 63.3291 131.859 60.2667 127.741 60.2667C125.079 60.2259 122.59 61.5809 121.179 63.8389C113.064 55.2913 111.236 42.5485 116.622 32.0647L153.826 69.4816C148.081 72.404 141.495 73.2268 135.208 71.808ZM157.786 70.4405L156.283 68.9291L117.181 29.5915L115.672 28.0789L117.181 26.5749L133.051 42.5344C133.059 42.5344 133.063 42.5483 133.071 42.5536L159.3 68.9365L157.786 70.4405Z" fill="#2E2F42"/>
    <path d="M127.751 64.5333H127.741C125.974 64.5306 124.539 65.9612 124.537 67.7285C124.534 69.4958 125.965 70.9306 127.732 70.9333H127.741C129.509 70.936 130.944 69.5054 130.946 67.7381C130.949 65.9708 129.518 64.536 127.751 64.5333ZM128.498 68.4896C128.297 68.6893 128.025 68.801 127.741 68.8C127.152 68.7969 126.677 68.3169 126.68 67.7278C126.682 67.4458 126.795 67.176 126.995 66.977C127.193 66.7796 127.461 66.6681 127.741 66.6666C128.331 66.6697 128.806 67.1497 128.803 67.7388C128.801 68.0208 128.688 68.2906 128.488 68.4896H128.498Z" fill="#4D5AE5"/>
  </symbol>
  <symbol id="icon-punctuality" viewBox="0 0 264 112">
    <rect x="0.5" y="0.5" width="263" height="111" rx="3.5" fill="#F4F4FD" stroke="#8E8F99"/>
    <path d="M162.593 54.6025C162.59 37.6978 148.883 23.9966 131.978 24C115.073 24.0034 101.372 37.7109 101.375 54.6157C101.378 67.9316 109.989 79.7178 122.674 83.7681C122.795 83.8062 122.921 83.8257 123.047 83.8252C123.289 83.8247 123.525 83.7603 123.732 83.6377C124.002 83.478 124.204 83.2241 124.299 82.9248L132.029 58.4248C134.142 58.4141 135.846 56.6919 135.835 54.5791C135.824 52.4658 134.103 50.7617 131.989 50.7725C131.421 50.7749 130.86 50.9058 130.349 51.1553L120.137 40.9419C119.63 40.4526 118.823 40.4668 118.334 40.9731C117.856 41.4678 117.856 42.251 118.334 42.7456L128.541 52.9639C127.757 54.5625 128.205 56.4922 129.613 57.582L122.248 80.9277C107.692 75.5659 100.239 59.4199 105.601 44.8643C110.963 30.3086 127.109 22.8555 141.665 28.2173C156.22 33.5791 163.673 49.7256 158.312 64.2808C155.692 71.3921 150.31 77.1431 143.387 80.2275L142.591 76.479C142.446 75.79 141.769 75.3496 141.08 75.4956C140.862 75.542 140.661 75.6441 140.495 75.792L132.821 82.6431C132.294 83.1113 132.248 83.9175 132.716 84.4439C132.869 84.6148 133.064 84.7417 133.283 84.8115L143.08 87.9385C143.75 88.1538 144.469 87.7852 144.684 87.1143C144.752 86.9024 144.764 86.6768 144.718 86.459L143.936 82.7808C155.264 78.0049 162.62 66.8965 162.593 54.6025ZM131.984 53.3272C132.688 53.3272 133.26 53.8984 133.26 54.6025C133.26 55.3071 132.688 55.8779 131.984 55.8779C131.28 55.8779 130.709 55.3071 130.709 54.6025C130.709 53.8984 131.28 53.3272 131.984 53.3272ZM136.185 83.0552L140.553 79.1587L141.759 84.8394L136.185 83.0552Z" fill="#2E2F42"/>
    <path d="M130.709 30.3701V32.9209C130.709 33.6255 131.28 34.1963 131.984 34.1963C132.688 34.1963 133.26 33.6255 133.26 32.9209V30.3701C133.26 29.666 132.688 29.0947 131.984 29.0947C131.28 29.0947 130.709 29.666 130.709 30.3701Z" fill="#4D5AE5"/>
    <path d="M107.752 53.3271C107.047 53.3271 106.477 53.8984 106.477 54.6025C106.477 55.3071 107.047 55.8779 107.752 55.8779H110.303C111.007 55.8779 111.578 55.3071 111.578 54.6025C111.578 53.8984 111.007 53.3271 110.303 53.3271H107.752Z" fill="#4D5AE5"/>
    <path d="M156.216 55.8779C156.921 55.8779 157.492 55.3071 157.492 54.6025C157.492 53.8984 156.921 53.3271 156.216 53.3271H153.665C152.961 53.3271 152.39 53.8984 152.39 54.6025C152.39 55.3071 152.961 55.8779 153.665 55.8779H156.216Z" fill="#4D5AE5"/>
  </symbol>
  <symbol id="icon-diligence" viewBox="0 0 264 112">
    <rect x="0.5" y="0.5" width="263" height="111" rx="3.5" fill="#F4F4FD" stroke="#8E8F99"/>
    <g clip-path="url(#clip0_1004689_1303)">
    <path d="M129.851 53.9292H131.983V63.5242H129.851V53.9292Z" fill="#4D5AE5"/>
    <path d="M138.38 58.1936H140.512V63.5242H138.38V58.1936Z" fill="#4D5AE5"/>
    <path d="M121.322 61.392H123.454V63.5242H121.322V61.392Z" fill="#4D5AE5"/>
    <path d="M114.926 60.3258H117.058V63.5241H114.926V60.3258Z" fill="#4D5AE5"/>
    <path d="M103.198 80.5819H154.372C156.138 80.5819 157.57 79.1499 157.57 77.3836V73.1192C157.57 71.3529 156.138 69.9209 154.372 69.9209H153.305V43.3343L159.361 37.5977C160.767 38.2905 162.468 37.8699 163.388 36.6003C164.308 35.3312 164.179 33.5836 163.083 32.4634C161.986 31.3431 160.242 31.176 158.953 32.0678C157.664 32.96 157.206 34.6513 157.868 36.0719L153.305 40.3973V37.9376C153.305 36.1713 151.873 34.7393 150.107 34.7393H107.463C105.696 34.7393 104.264 36.1713 104.264 37.9376V69.9209H103.198C101.432 69.9209 100 71.3529 100 73.1192V77.3836C100 79.1499 101.432 80.5819 103.198 80.5819ZM160.768 33.6732C161.357 33.6732 161.834 34.1505 161.834 34.7393C161.834 35.328 161.357 35.8054 160.768 35.8054C160.179 35.8054 159.702 35.328 159.702 34.7393C159.702 34.1505 160.179 33.6732 160.768 33.6732ZM106.397 37.9376C106.397 37.3489 106.874 36.8715 107.463 36.8715H150.107C150.696 36.8715 151.173 37.3489 151.173 37.9376V42.4149L149.041 44.441V40.0698C149.041 39.4811 148.564 39.0037 147.975 39.0037H109.595C109.006 39.0037 108.529 39.4811 108.529 40.0698V66.7225C108.529 67.3113 109.006 67.7886 109.595 67.7886H147.975C148.564 67.7886 149.041 67.3113 149.041 66.7225V47.3738L151.173 45.3535V69.9209H106.397V37.9376ZM115.992 51.797C114.549 51.7929 113.283 52.7538 112.899 54.1442C112.515 55.5346 113.109 57.0094 114.35 57.7455C115.59 58.4815 117.17 58.2967 118.206 57.2936L121.912 59.1531C122.342 59.3686 122.865 59.2676 123.185 58.9079L131.062 50.0453L138.806 55.848C139.222 56.1593 139.802 56.126 140.178 55.7694L146.909 49.3941V65.6564H110.661V41.1359H146.909V46.4566L139.366 53.5997L131.557 47.7455C131.113 47.4134 130.489 47.4758 130.121 47.8897L122.135 56.8751L119.149 55.3821C119.171 55.2541 119.185 55.125 119.19 54.9953C119.19 53.2291 117.758 51.797 115.992 51.797ZM117.058 54.9953C117.058 55.5841 116.58 56.0615 115.992 56.0615C115.403 56.0615 114.926 55.5841 114.926 54.9953C114.926 54.4066 115.403 53.9292 115.992 53.9292C116.58 53.9292 117.058 54.4066 117.058 54.9953ZM123.454 72.0531H134.115V73.1192C134.115 73.7079 133.638 74.1853 133.049 74.1853H124.52C123.932 74.1853 123.454 73.7079 123.454 73.1192V72.0531ZM102.132 73.1192C102.132 72.5304 102.61 72.0531 103.198 72.0531H121.322V73.1192C121.322 74.8855 122.754 76.3175 124.52 76.3175H133.049C134.816 76.3175 136.248 74.8855 136.248 73.1192V72.0531H154.372C154.96 72.0531 155.438 72.5304 155.438 73.1192V77.3836C155.438 77.9724 154.96 78.4497 154.372 78.4497H103.198C102.61 78.4497 102.132 77.9724 102.132 77.3836V73.1192Z" fill="#2E2F42"/>
    </g>
    <defs>
    <clipPath id="clip0_1004689_1303">
    <rect width="64" height="64" fill="white" transform="translate(100 24)"/>
    </clipPath>
    </defs>
  </symbol>
  <symbol id="icon-technologies" viewBox="0 0 264 112">
    <rect x="0.5" y="0.5" width="263" height="111" rx="3.5" fill="#F4F4FD" stroke="#8E8F99"/>
    <g clip-path="url(#clip0_1004689_1303)">
    <path d="M129.851 53.9292H131.983V63.5242H129.851V53.9292Z" fill="#4D5AE5"/>
    <path d="M138.38 58.1936H140.512V63.5242H138.38V58.1936Z" fill="#4D5AE5"/>
    <path d="M121.322 61.392H123.454V63.5242H121.322V61.392Z" fill="#4D5AE5"/>
    <path d="M114.926 60.3258H117.058V63.5241H114.926V60.3258Z" fill="#4D5AE5"/>
    <path d="M103.198 80.5819H154.372C156.138 80.5819 157.57 79.1499 157.57 77.3836V73.1192C157.57 71.3529 156.138 69.9209 154.372 69.9209H153.305V43.3343L159.361 37.5977C160.767 38.2905 162.468 37.8699 163.388 36.6003C164.308 35.3312 164.179 33.5836 163.083 32.4634C161.986 31.3431 160.242 31.176 158.953 32.0678C157.664 32.96 157.206 34.6513 157.868 36.0719L153.305 40.3973V37.9376C153.305 36.1713 151.873 34.7393 150.107 34.7393H107.463C105.696 34.7393 104.264 36.1713 104.264 37.9376V69.9209H103.198C101.432 69.9209 100 71.3529 100 73.1192V77.3836C100 79.1499 101.432 80.5819 103.198 80.5819ZM160.768 33.6732C161.357 33.6732 161.834 34.1505 161.834 34.7393C161.834 35.328 161.357 35.8054 160.768 35.8054C160.179 35.8054 159.702 35.328 159.702 34.7393C159.702 34.1505 160.179 33.6732 160.768 33.6732ZM106.397 37.9376C106.397 37.3489 106.874 36.8715 107.463 36.8715H150.107C150.696 36.8715 151.173 37.3489 151.173 37.9376V42.4149L149.041 44.441V40.0698C149.041 39.4811 148.564 39.0037 147.975 39.0037H109.595C109.006 39.0037 108.529 39.4811 108.529 40.0698V66.7225C108.529 67.3113 109.006 67.7886 109.595 67.7886H147.975C148.564 67.7886 149.041 67.3113 149.041 66.7225V47.3738L151.173 45.3535V69.9209H106.397V37.9376ZM115.992 51.797C114.549 51.7929 113.283 52.7538 112.899 54.1442C112.515 55.5346 113.109 57.0094 114.35 57.7455C115.59 58.4815 117.17 58.2967 118.206 57.2936L121.912 59.1531C122.342 59.3686 122.865 59.2676 123.185 58.9079L131.062 50.0453L138.806 55.848C139.222 56.1593 139.802 56.126 140.178 55.7694L146.909 49.3941V65.6564H110.661V41.1359H146.909V46.4566L139.366 53.5997L131.557 47.7455C131.113 47.4134 130.489 47.4758 130.121 47.8897L122.135 56.8751L119.149 55.3821C119.171 55.2541 119.185 55.125 119.19 54.9953C119.19 53.2291 117.758 51.797 115.992 51.797ZM117.058 54.9953C117.058 55.5841 116.58 56.0615 115.992 56.0615C115.403 56.0615 114.926 55.5841 114.926 54.9953C114.926 54.4066 115.403 53.9292 115.992 53.9292C116.58 53.9292 117.058 54.4066 117.058 54.9953ZM123.454 72.0531H134.115V73.1192C134.115 73.7079 133.638 74.1853 133.049 74.1853H124.52C123.932 74.1853 123.454 73.7079 123.454 73.1192V72.0531ZM102.132 73.1192C102.132 72.5304 102.61 72.0531 103.198 72.0531H121.322V73.1192C121.322 74.8855 122.754 76.3175 124.52 76.3175H133.049C134.816 76.3175 136.248 74.8855 136.248 73.1192V72.0531H154.372C154.96 72.0531 155.438 72.5304 155.438 73.1192V77.3836C155.438 77.9724 154.96 78.4497 154.372 78.4497H103.198C102.61 78.4497 102.132 77.9724 102.132 77.3836V73.1192Z" fill="#2E2F42"/>
    </g>
    <defs>
    <clipPath id="clip0_1004689_1303">
    <rect width="64" height="64" fill="white" transform="translate(100 24)"/>
    </clipPath>
    </defs>
  </symbol>

<symbol id="icon-instagram" width="40" height="40">
  <path d="M40 20C40 25.5228 37.7614 30.5228 34.1421 34.1421C30.5228 37.7614 25.5228 40 20 40C14.4772 40 9.47715 37.7614 5.85786 34.1421C2.23858 30.5228 0 25.5228 0 20C0 14.4772 2.23858 9.47715 5.85786 5.85786C9.47715 2.23858 14.4772 0 20 0C25.5228 0 30.5228 2.23858 34.1421 5.85786C37.7614 9.47715 40 14.4772 40 20Z" fill="#4D5AE5"/>
  <g clip-path="url(#clip0_1065011_20)">
  <path d="M27.9843 16.704C27.9468 15.8539 27.8093 15.2694 27.6124 14.763C27.4092 14.2254 27.0967 13.7441 26.6872 13.344C26.2871 12.9377 25.8026 12.6219 25.2713 12.422C24.7619 12.225 24.1805 12.0875 23.3303 12.0501C22.4738 12.0094 22.2019 12 20.0296 12C17.8573 12 17.5854 12.0094 16.7321 12.0469C15.882 12.0844 15.2975 12.222 14.7912 12.4188C14.2535 12.6219 13.7722 12.9345 13.3721 13.344C12.9658 13.7441 12.6501 14.2286 12.45 14.7599C12.2531 15.2694 12.1156 15.8507 12.0781 16.7009C12.0375 17.5574 12.0281 17.8293 12.0281 20.0016C12.0281 22.1739 12.0375 22.4458 12.075 23.2991C12.1124 24.1492 12.25 24.7337 12.447 25.2401C12.6501 25.7777 12.9658 26.259 13.3721 26.6591C13.7722 27.0654 14.2567 27.3812 14.788 27.5812C15.2975 27.7781 15.8788 27.9156 16.7291 27.9531C17.5823 27.9907 17.8543 28 20.0266 28C22.1989 28 22.4708 27.9907 23.3241 27.9531C24.1742 27.9156 24.7587 27.7781 25.265 27.5812C26.3403 27.1654 27.1904 26.3153 27.6062 25.2401C27.803 24.7306 27.9406 24.1492 27.9781 23.2991C28.0156 22.4458 28.025 22.1739 28.025 20.0016C28.025 17.8293 28.0218 17.5574 27.9843 16.704ZM26.5435 23.2366C26.509 24.018 26.3778 24.4399 26.2684 24.7212C25.9995 25.4183 25.4463 25.9715 24.7493 26.2403C24.468 26.3497 24.043 26.481 23.2646 26.5153C22.4207 26.5529 22.1676 26.5622 20.0328 26.5622C17.898 26.5622 17.6417 26.5529 16.8009 26.5153C16.0195 26.481 15.5975 26.3497 15.3162 26.2403C14.9693 26.1121 14.6536 25.909 14.3973 25.6433C14.1316 25.3838 13.9285 25.0713 13.8003 24.7244C13.6909 24.4431 13.5596 24.018 13.5253 23.2397C13.4877 22.3958 13.4784 22.1426 13.4784 20.0078C13.4784 17.873 13.4877 17.6167 13.5253 16.776C13.5596 15.9946 13.6909 15.5726 13.8003 15.2913C13.9285 14.9443 14.1316 14.6287 14.4005 14.3723C14.6598 14.1066 14.9724 13.9034 15.3194 13.7754C15.6007 13.666 16.0258 13.5347 16.804 13.5003C17.6479 13.4628 17.9012 13.4534 20.0359 13.4534C22.1738 13.4534 22.4269 13.4628 23.2678 13.5003C24.0492 13.5347 24.4712 13.666 24.7525 13.7754C25.0993 13.9034 25.4151 14.1066 25.6714 14.3723C25.937 14.6317 26.1402 14.9443 26.2684 15.2913C26.3778 15.5726 26.509 15.9976 26.5435 16.776C26.581 17.6199 26.5904 17.873 26.5904 20.0078C26.5904 22.1426 26.581 22.3927 26.5435 23.2366Z" fill="#F4F4FD"/>
  <path d="M20.0297 15.8914C17.7606 15.8914 15.9195 17.7323 15.9195 20.0015C15.9195 22.2708 17.7606 24.1117 20.0297 24.1117C22.2989 24.1117 24.1398 22.2708 24.1398 20.0015C24.1398 17.7323 22.2989 15.8914 20.0297 15.8914ZM20.0297 22.6677C18.5576 22.6677 17.3635 21.4737 17.3635 20.0015C17.3635 18.5293 18.5576 17.3354 20.0297 17.3354C21.5019 17.3354 22.6958 18.5293 22.6958 20.0015C22.6958 21.4737 21.5019 22.6677 20.0297 22.6677Z" fill="#F4F4FD"/>
  <path d="M25.262 15.7289C25.262 16.2588 24.8324 16.6884 24.3024 16.6884C23.7725 16.6884 23.3428 16.2588 23.3428 15.7289C23.3428 15.1989 23.7725 14.7693 24.3024 14.7693C24.8324 14.7693 25.262 15.1989 25.262 15.7289Z" fill="#F4F4FD"/>
  </g>
  <defs>
  <clipPath id="clip0_1065011_20">
  <rect width="16" height="16" fill="white" transform="translate(12 12)"/>
  </clipPath>
  </defs>
</symbol> 

<symbol id="icon-twitter" width="40" height="40">
  <path d="M40 20C40 25.5228 37.7614 30.5228 34.1421 34.1421C30.5228 37.7614 25.5228 40 20 40C14.4772 40 9.47715 37.7614 5.85786 34.1421C2.23858 30.5228 0 25.5228 0 20C0 14.4772 2.23858 9.47715 5.85786 5.85786C9.47715 2.23858 14.4772 0 20 0C25.5228 0 30.5228 2.23858 34.1421 5.85786C37.7614 9.47715 40 14.4772 40 20Z" fill="#4D5AE5"/>
  <path d="M28 15.039C27.405 15.3 26.771 15.473 26.11 15.557C26.79 15.151 27.309 14.513 27.553 13.744C26.919 14.122 26.219 14.389 25.473 14.538C24.871 13.897 24.013 13.5 23.077 13.5C21.261 13.5 19.799 14.974 19.799 16.781C19.799 17.041 19.821 17.291 19.875 17.529C17.148 17.396 14.735 16.089 13.114 14.098C12.831 14.589 12.665 15.151 12.665 15.756C12.665 16.892 13.25 17.899 14.122 18.482C13.595 18.472 13.078 18.319 12.64 18.078C12.64 18.088 12.64 18.101 12.64 18.114C12.64 19.708 13.777 21.032 15.268 21.337C15.001 21.41 14.71 21.445 14.408 21.445C14.198 21.445 13.986 21.433 13.787 21.389C14.212 22.688 15.418 23.643 16.852 23.674C15.736 24.547 14.319 25.073 12.785 25.073C12.516 25.073 12.258 25.061 12 25.028C13.453 25.965 15.175 26.5 17.032 26.5C23.068 26.5 26.368 21.5 26.368 17.166C26.368 17.021 26.363 16.881 26.356 16.742C27.007 16.28 27.554 15.703 28 15.039Z" fill="#F4F4FD"/>
</symbol>

  <symbol id="icon-facebook" width="40" height="40">
  <path d="M40 20C40 25.5228 37.7614 30.5228 34.1421 34.1421C30.5228 37.7614 25.5228 40 20 40C14.4772 40 9.47715 37.7614 5.85786 34.1421C2.23858 30.5228 0 25.5228 0 20C0 14.4772 2.23858 9.47715 5.85786 5.85786C9.47715 2.23858 14.4772 0 20 0C25.5228 0 30.5228 2.23858 34.1421 5.85786C37.7614 9.47715 40 14.4772 40 20Z" fill="#4D5AE5"/>
  <g clip-path="url(#clip0_1065011_42)">
  <path d="M22.6647 14.6567H24.1254V12.1127C23.8734 12.078 23.0067 12 21.9974 12C19.8914 12 18.4487 13.3247 18.4487 15.7593V18H16.1247V20.844H18.4487V28H21.298V20.8447H23.528L23.882 18.0007H21.2974V16.0413C21.298 15.2193 21.5194 14.6567 22.6647 14.6567Z" fill="#F4F4FD"/>
  </g>
  <defs>
  <clipPath id="clip0_1065011_42">
  <rect width="16" height="16" fill="white" transform="translate(12 12)"/>
  </clipPath>
  </defs>
  </symbol>

  <symbol id="icon-linkedin" width="40" height="40">
    <path d="M40 20C40 25.5228 37.7614 30.5228 34.1421 34.1421C30.5228 37.7614 25.5228 40 20 40C14.4772 40 9.47715 37.7614 5.85786 34.1421C2.23858 30.5228 0 25.5228 0 20C0 14.4772 2.23858 9.47715 5.85786 5.85786C9.47715 2.23858 14.4772 0 20 0C25.5228 0 30.5228 2.23858 34.1421 5.85786C37.7614 9.47715 40 14.4772 40 20Z" fill="#4D5AE5"/>
    <g clip-path="url(#clip0_1065011_49)">
    <path d="M27.9961 28V27.9994H28.0001V22.1314C28.0001 19.2607 27.3821 17.0494 24.0261 17.0494C22.4128 17.0494 21.3301 17.9347 20.8881 18.774H20.8414V17.3174H17.6594V27.9994H20.9728V22.71C20.9728 21.3174 21.2368 19.9707 22.9614 19.9707C24.6608 19.9707 24.6861 21.56 24.6861 22.7994V28H27.9961Z" fill="#F4F4FD"/>
    <path d="M12.264 17.318H15.5814V28H12.264V17.318Z" fill="#F4F4FD"/>
    <path d="M13.9214 12C12.8607 12 12.0001 12.8607 12.0001 13.9213C12.0001 14.982 12.8607 15.8607 13.9214 15.8607C14.9821 15.8607 15.8427 14.982 15.8427 13.9213C15.8421 12.8607 14.9814 12 13.9214 12V12Z" fill="#F4F4FD"/>
    </g>
    <defs>
    <clipPath id="clip0_1065011_49">
    <rect width="16" height="16" fill="white" transform="translate(12.0001 12)"/>
    </clipPath>
    </defs>
  </symbol>

  
</svg>
